<?xml version="1.0" encoding="utf-8"?>
<svg version="1.1" id="Layer_1" xmlns="http://www.w3.org/2000/svg" x="0px" y="0px" width="100%" viewBox="0 0 1024 1024" enable-background="new 0 0 1024 1024">
  <path fill="#FBD535" opacity="1.000000" stroke="none" d=" M1.000000,937.000000 C1.000000,654.637329 1.000000,372.274597 1.296263,89.206680 C1.726016,87.852036 1.893251,87.207504 1.988176,86.552498 C7.911821,45.677605 38.550804,12.558832 78.822495,3.564840 C83.188179,2.589837 87.606239,1.849296 92.000000,1.000000 C373.362701,1.000000 654.725403,1.000000 936.762329,1.324235 C981.213928,8.612652 1013.241516,37.908737 1022.559998,79.528748 C1023.414062,83.343376 1024.188599,87.175827 1025.000000,91.000000 C1025.000000,372.696045 1025.000000,654.392090 1024.681030,936.768921 C1024.225708,938.096985 1024.063110,938.739990 1023.956482,939.392090 C1017.067749,981.495544 987.345520,1013.497986 946.677063,1022.540039 C942.476685,1023.473938 938.226868,1024.185303 934.000000,1025.000000 C653.637329,1025.000000 373.274597,1025.000000 92.099426,1024.836426 C90.639175,1024.529053 89.998268,1024.325928 89.342651,1024.250488 C46.848179,1019.356384 12.007603,987.719666 3.177538,946.025452 C2.536576,942.998962 1.729722,940.007690 1.000000,937.000000 M804.461975,888.844360 C806.460999,888.843018 808.460022,888.840393 810.459045,888.840576 C835.795471,888.842834 852.405640,874.559021 858.209778,856.964355 C861.607544,846.664246 862.406372,835.455811 863.913879,824.592102 C869.497864,784.352417 874.868713,744.083191 880.360901,703.830688 C885.875427,663.414307 891.459778,623.007446 896.975342,582.591248 C902.468506,542.338867 907.899353,502.077881 913.384705,461.824371 C918.914795,421.241760 924.477783,380.663635 930.027344,340.083649 C934.877686,304.616699 939.744019,269.151947 944.575134,233.682419 C947.451294,212.566147 950.324341,191.449188 953.096863,170.319183 C954.368958,160.624619 951.310059,152.647675 943.294373,146.688766 C938.323730,142.993500 932.665405,142.162750 926.750122,142.161819 C867.418091,142.152466 808.085999,142.123108 748.754150,142.217773 C743.787537,142.225693 738.711548,142.589142 733.875366,143.649323 C712.451538,148.345795 698.550720,165.322906 696.091370,189.037979 C691.161255,236.578491 686.127197,284.108215 681.178894,331.646820 C675.368469,387.467896 669.608826,443.294250 663.807007,499.116211 C663.412354,502.912994 662.849609,506.692291 662.365051,510.479706 C660.548218,508.312531 659.706421,506.168732 658.918396,504.005371 C639.608337,450.992676 620.543213,397.888916 600.873840,345.009918 C593.604065,325.466034 578.858521,313.888947 557.773376,313.256927 C530.635132,312.443481 503.432281,312.406738 476.298096,313.289795 C455.671936,313.961060 441.178986,325.289062 433.997040,344.531189 C416.072601,392.554871 398.670593,440.773560 381.054810,488.912506 C378.334015,496.347717 375.591797,503.775085 372.389374,512.484680 C372.020844,510.254456 371.851562,509.475342 371.767792,508.687103 C368.529205,478.216431 365.260834,447.748901 362.076263,417.272583 C358.251282,380.667572 354.516876,344.053131 350.709229,307.446289 C346.798248,269.846039 342.801849,232.254593 338.937927,194.649521 C337.698364,182.585419 335.453644,170.959152 327.782043,161.022354 C317.234711,147.360855 302.985565,142.113144 286.224579,142.142029 C254.392044,142.196899 222.559341,142.155991 190.726715,142.155746 C162.727341,142.155533 134.727692,142.083023 106.728668,142.184494 C89.930702,142.245361 79.076805,154.002289 81.198051,170.150696 C85.469894,202.670883 90.050522,235.150528 94.499405,267.647491 C99.332237,302.948914 104.173409,338.249207 108.986549,373.553314 C114.159409,411.495972 119.289429,449.444458 124.465042,487.386719 C129.280609,522.689575 134.152283,557.984741 138.961472,593.288452 C144.444839,633.541443 149.871353,673.802246 155.350494,714.055786 C160.560211,752.329956 165.735809,790.609131 171.085205,828.863831 C172.419373,838.404663 172.997772,848.368713 176.302643,857.253235 C184.209930,878.511047 200.965378,888.588623 223.205856,888.725891 C273.202545,889.034424 323.204834,889.084473 373.200104,888.669006 C395.824554,888.480957 411.611237,877.587524 420.794800,856.313354 C451.866272,784.334961 483.402588,712.557312 514.770081,640.706726 C515.445129,639.160583 516.227051,637.661011 517.287781,635.456726 C518.473022,638.049316 519.256531,639.696594 519.985657,641.367615 C551.671997,713.987000 583.411133,786.583374 614.969360,859.258423 C619.353821,869.355408 626.331604,876.790527 635.602295,882.232361 C644.643188,887.539307 654.696655,888.834900 664.975464,888.837952 C711.141113,888.851562 757.306763,888.844116 804.461975,888.844360 z"/>
  <path opacity="1.000000" stroke="none" d=" M1025.000000,90.531342 C1024.188599,87.175827 1023.414062,83.343376 1022.559998,79.528748 C1013.241516,37.908737 981.213928,8.612652 937.218262,1.324235 C966.261047,1.000000 995.522156,1.000000 1025.000000,1.000000 C1025.000000,30.687210 1025.000000,60.374947 1025.000000,90.531342 z" style="fill: rgba(255, 255, 253, 0);"/>
  <path opacity="1.000000" stroke="none" d=" M934.468628,1025.000000 C938.226868,1024.185303 942.476685,1023.473938 946.677063,1022.540039 C987.345520,1013.497986 1017.067749,981.495544 1023.956482,939.392090 C1024.063110,938.739990 1024.225708,938.096985 1024.681030,937.224854 C1025.000000,966.261475 1025.000000,995.522949 1025.000000,1025.000000 C994.979431,1025.000000 964.958374,1025.000000 934.468628,1025.000000 z" style="fill: rgba(255, 255, 253, 0);"/>
  <path opacity="1.000000" stroke="none" d=" M1.000000,937.468628 C1.729722,940.007690 2.536576,942.998962 3.177538,946.025452 C12.007603,987.719666 46.848179,1019.356384 89.342651,1024.250488 C89.998268,1024.325928 90.639175,1024.529053 91.643471,1024.836426 C61.740978,1025.000000 31.481958,1025.000000 1.000000,1025.000000 C1.000000,995.979492 1.000000,966.958374 1.000000,937.468628 z" style="fill: rgba(255, 255, 254, 0);"/>
  <path opacity="1.000000" stroke="none" d=" M91.531342,1.000000 C87.606239,1.849296 83.188179,2.589837 78.822495,3.564840 C38.550804,12.558832 7.911821,45.677605 1.988176,86.552498 C1.893251,87.207504 1.726016,87.852036 1.296263,88.750725 C1.000000,59.738529 1.000000,30.477055 1.000000,1.000000 C31.020550,1.000000 61.041618,1.000000 91.531342,1.000000 z" style="fill: rgba(255, 255, 254, 0);"/>
  <path opacity="1.000000" stroke="none" d=" M803.967163,888.844299 C757.306763,888.844116 711.141113,888.851562 664.975464,888.837952 C654.696655,888.834900 644.643188,887.539307 635.602295,882.232361 C626.331604,876.790527 619.353821,869.355408 614.969360,859.258423 C583.411133,786.583374 551.671997,713.987000 519.985657,641.367615 C519.256531,639.696594 518.473022,638.049316 517.287781,635.456726 C516.227051,637.661011 515.445129,639.160583 514.770081,640.706726 C483.402588,712.557312 451.866272,784.334961 420.794800,856.313354 C411.611237,877.587524 395.824554,888.480957 373.200104,888.669006 C323.204834,889.084473 273.202545,889.034424 223.205856,888.725891 C200.965378,888.588623 184.209930,878.511047 176.302643,857.253235 C172.997772,848.368713 172.419373,838.404663 171.085205,828.863831 C165.735809,790.609131 160.560211,752.329956 155.350494,714.055786 C149.871353,673.802246 144.444839,633.541443 138.961472,593.288452 C134.152283,557.984741 129.280609,522.689575 124.465042,487.386719 C119.289429,449.444458 114.159409,411.495972 108.986549,373.553314 C104.173409,338.249207 99.332237,302.948914 94.499405,267.647491 C90.050522,235.150528 85.469894,202.670883 81.198051,170.150696 C79.076805,154.002289 89.930702,142.245361 106.728668,142.184494 C134.727692,142.083023 162.727341,142.155533 190.726715,142.155746 C222.559341,142.155991 254.392044,142.196899 286.224579,142.142029 C302.985565,142.113144 317.234711,147.360855 327.782043,161.022354 C335.453644,170.959152 337.698364,182.585419 338.937927,194.649521 C342.801849,232.254593 346.798248,269.846039 350.709229,307.446289 C354.516876,344.053131 358.251282,380.667572 362.076263,417.272583 C365.260834,447.748901 368.529205,478.216431 371.767792,508.687103 C371.851562,509.475342 372.020844,510.254456 372.389374,512.484680 C375.591797,503.775085 378.334015,496.347717 381.054810,488.912506 C398.670593,440.773560 416.072601,392.554871 433.997040,344.531189 C441.178986,325.289062 455.671936,313.961060 476.298096,313.289795 C503.432281,312.406738 530.635132,312.443481 557.773376,313.256927 C578.858521,313.888947 593.604065,325.466034 600.873840,345.009918 C620.543213,397.888916 639.608337,450.992676 658.918396,504.005371 C659.706421,506.168732 660.548218,508.312531 662.365051,510.479706 C662.849609,506.692291 663.412354,502.912994 663.807007,499.116211 C669.608826,443.294250 675.368469,387.467896 681.178894,331.646820 C686.127197,284.108215 691.161255,236.578491 696.091370,189.037979 C698.550720,165.322906 712.451538,148.345795 733.875366,143.649323 C738.711548,142.589142 743.787537,142.225693 748.754150,142.217773 C808.085999,142.123108 867.418091,142.152466 926.750122,142.161819 C932.665405,142.162750 938.323730,142.993500 943.294373,146.688766 C951.310059,152.647675 954.368958,160.624619 953.096863,170.319183 C950.324341,191.449188 947.451294,212.566147 944.575134,233.682419 C939.744019,269.151947 934.877686,304.616699 930.027344,340.083649 C924.477783,380.663635 918.914795,421.241760 913.384705,461.824371 C907.899353,502.077881 902.468506,542.338867 896.975342,582.591248 C891.459778,623.007446 885.875427,663.414307 880.360901,703.830688 C874.868713,744.083191 869.497864,784.352417 863.913879,824.592102 C862.406372,835.455811 861.607544,846.664246 858.209778,856.964355 C852.405640,874.559021 835.795471,888.842834 810.459045,888.840576 C808.460022,888.840393 806.460999,888.843018 803.967163,888.844299 z" style="fill: rgba(255, 255, 255, 0);"/>
</svg>