<?xml version="1.0" encoding="utf-8"?>
<svg version="1.1" id="Layer_1" xmlns="http://www.w3.org/2000/svg" x="0px" y="0px" width="100%" viewBox="0 0 1024 1024" enable-background="new 0 0 1024 1024">
  <path fill="#FBD535" opacity="1.000000" stroke="none" d="M 1 937 C 1 654.637 1 372.275 1.296 89.207 C 1.726 87.852 1.893 87.208 1.988 86.552 C 7.912 45.678 38.551 12.559 78.822 3.565 C 83.188 2.59 87.606 1.849 92 1 C 373.363 1 654.725 1 936.762 1.324 C 981.214 8.613 1013.242 37.909 1022.56 79.529 C 1023.414 83.343 1024.189 87.176 1025 91 C 1025 372.696 1025 654.392 1024.681 936.769 C 1024.226 938.097 1024.063 938.74 1023.956 939.392 C 1017.068 981.496 987.346 1013.498 946.677 1022.54 C 942.477 1023.474 938.227 1024.185 934 1025 C 653.637 1025 373.275 1025 92.099 1024.836 C 90.639 1024.529 89.998 1024.326 89.343 1024.25 C 46.848 1019.356 12.008 987.72 3.178 946.025 C 2.537 942.999 1.73 940.008 1 937 M 785.774 888.844 C 787.773 888.843 789.772 888.84 791.771 888.841 C 817.107 888.843 833.718 874.559 839.522 856.964 C 842.92 846.664 843.718 835.456 845.226 824.592 C 850.81 784.352 856.181 744.083 861.673 703.831 C 867.187 663.414 872.772 623.007 878.287 582.591 C 883.781 542.339 889.211 502.078 894.697 461.824 C 900.227 421.242 905.79 380.664 911.339 340.084 C 916.19 304.617 921.056 269.152 925.887 233.682 C 928.763 212.566 931.636 191.449 934.409 170.319 C 935.681 160.625 932.622 152.648 924.606 146.689 C 919.636 142.994 913.977 142.163 908.062 142.162 C 848.73 142.152 804.688 142.123 745.356 142.218 C 740.39 142.226 735.314 142.589 730.477 143.649 C 709.054 148.346 695.153 165.323 692.693 189.038 C 687.763 236.578 682.729 284.108 677.781 331.647 C 671.97 387.468 666.211 443.294 660.409 499.116 C 660.014 502.913 659.452 506.692 658.967 510.48 C 657.15 508.313 656.308 506.169 655.52 504.005 C 636.21 450.993 617.145 397.889 597.476 345.01 C 590.206 325.466 575.461 313.889 554.375 313.257 C 527.237 312.443 508.529 312.407 481.395 313.29 C 460.769 313.961 446.276 325.289 439.094 344.531 C 421.17 392.555 403.768 440.774 386.152 488.913 C 383.431 496.348 380.689 503.775 377.486 512.485 C 377.118 510.254 376.949 509.475 376.865 508.687 C 373.626 478.216 370.358 447.749 367.173 417.273 C 363.348 380.668 359.614 344.053 355.806 307.446 C 351.895 269.846 347.899 232.255 344.035 194.65 C 342.795 182.585 340.551 170.959 332.879 161.022 C 322.332 147.361 308.083 142.113 291.322 142.142 C 259.489 142.197 239.549 142.156 207.716 142.156 C 179.717 142.156 151.717 142.083 123.718 142.184 C 106.92 142.245 96.066 154.002 98.187 170.151 C 102.459 202.671 107.04 235.151 111.489 267.647 C 116.321 302.949 121.163 338.249 125.976 373.553 C 131.149 411.496 136.279 449.444 141.454 487.387 C 146.27 522.69 151.141 557.985 155.951 593.288 C 161.434 633.541 166.861 673.802 172.34 714.056 C 177.549 752.33 182.725 790.609 188.074 828.864 C 189.409 838.405 189.987 848.369 193.292 857.253 C 201.199 878.511 217.955 888.589 240.195 888.726 C 290.192 889.034 328.302 889.084 378.297 888.669 C 400.922 888.481 416.708 877.588 425.892 856.313 C 456.963 784.335 483.403 712.557 514.77 640.707 C 515.445 639.161 516.227 637.661 517.288 635.457 C 518.473 638.049 519.257 639.697 519.986 641.368 C 551.672 713.987 580.013 786.583 611.571 859.258 C 615.956 869.355 622.934 876.791 632.204 882.232 C 641.245 887.539 651.299 888.835 661.577 888.838 C 707.743 888.852 738.619 888.844 785.774 888.844 Z"/>
</svg>